<svg width="20" height="53" fill="none" xmlns="http://www.w3.org/2000/svg"><path d="M15.86 34.367c-1.158 0-2.187 1.491-2.828 3.786L7.514 30.68a24.02 24.02 0 00.142-2.627c0-1.235-.091-2.415-.257-3.494l5.784-9.209c.645 2.007 1.606 3.283 2.676 3.283 1.939 0 3.516-4.18 3.516-9.317C19.375 4.18 17.798 0 15.859 0c-1.938 0-3.515 4.18-3.515 9.316 0 1.188.084 2.324.238 3.369l-5.798 9.231c-.645-1.948-1.591-3.18-2.643-3.18-1.939 0-3.516 4.18-3.516 9.317 0 5.137 1.577 9.316 3.516 9.316 1.176 0 2.22-1.54 2.858-3.899l5.502 7.452a23.79 23.79 0 00-.157 2.762c0 5.137 1.577 9.316 3.515 9.316 1.939 0 3.516-4.18 3.516-9.316 0-5.137-1.577-9.317-3.516-9.317zm0-31.262c1.292 0 2.343 2.787 2.343 6.211 0 3.425-1.051 6.211-2.344 6.211-1.292 0-2.343-2.786-2.343-6.21 0-3.425 1.051-6.212 2.343-6.212zM4.14 34.264c-1.292 0-2.343-2.787-2.343-6.211 0-3.425 1.051-6.211 2.344-6.211 1.292 0 2.343 2.786 2.343 6.21 0 3.425-1.051 6.212-2.343 6.212zm11.72 15.63c-1.293 0-2.344-2.786-2.344-6.21 0-3.425 1.051-6.211 2.343-6.211 1.293 0 2.344 2.786 2.344 6.21 0 3.425-1.051 6.212-2.344 6.212z" fill="#828282"/></svg>