<svg width="20" height="53" viewBox="0 0 20 53" fill="none" xmlns="http://www.w3.org/2000/svg">
<path d="M15.8594 34.3672C14.7017 34.3672 13.6731 35.858 13.0321 38.1529L7.51375 30.6795C7.60633 29.846 7.65625 28.9646 7.65625 28.0527C7.65625 26.8177 7.56488 25.6383 7.39945 24.5588L13.183 15.3502C13.8284 17.3574 14.7887 18.6328 15.8594 18.6328C17.7979 18.6328 19.375 14.4535 19.375 9.31641C19.375 4.17934 17.7979 0 15.8594 0C13.9209 0 12.3438 4.17934 12.3438 9.31641C12.3438 10.5037 12.4282 11.6396 12.5816 12.6848L6.78359 21.9163C6.13875 19.9684 5.19301 18.7363 4.14062 18.7363C2.20211 18.7363 0.625 22.9157 0.625 28.0527C0.625 33.1898 2.20211 37.3691 4.14062 37.3691C5.31727 37.3691 6.36063 35.8292 6.9991 33.4701L12.5014 40.9217C12.399 41.7947 12.3438 42.7223 12.3438 43.6836C12.3438 48.8207 13.9209 53 15.8594 53C17.7979 53 19.375 48.8207 19.375 43.6836C19.375 38.5465 17.7979 34.3672 15.8594 34.3672ZM15.8594 3.10547C17.1517 3.10547 18.2031 5.8917 18.2031 9.31641C18.2031 12.7411 17.1517 15.5273 15.8594 15.5273C14.567 15.5273 13.5156 12.7411 13.5156 9.31641C13.5156 5.8917 14.567 3.10547 15.8594 3.10547ZM4.14062 34.2637C2.84828 34.2637 1.79688 31.4774 1.79688 28.0527C1.79688 24.628 2.84828 21.8418 4.14062 21.8418C5.43297 21.8418 6.48438 24.628 6.48438 28.0527C6.48438 31.4774 5.43297 34.2637 4.14062 34.2637ZM15.8594 49.8945C14.567 49.8945 13.5156 47.1083 13.5156 43.6836C13.5156 40.2589 14.567 37.4727 15.8594 37.4727C17.1517 37.4727 18.2031 40.2589 18.2031 43.6836C18.2031 47.1083 17.1517 49.8945 15.8594 49.8945Z" fill="#828282"/>
</svg>
